<?xml version="1.0" encoding="UTF-8"?>
<!DOCTYPE svg PUBLIC "-//W3C//DTD SVG 1.1//EN" "http://www.w3.org/Graphics/SVG/1.1/DTD/svg11.dtd">
<svg xmlns="http://www.w3.org/2000/svg" version="1.1" width="396px" height="347px" style="shape-rendering:geometricPrecision; text-rendering:geometricPrecision; image-rendering:optimizeQuality; fill-rule:evenodd; clip-rule:evenodd" xmlns:xlink="http://www.w3.org/1999/xlink">
<g><path style="opacity:0.977" fill="#010101" d="M 395.5,173.5 C 395.5,189.833 395.5,206.167 395.5,222.5C 384.352,265.502 359.352,298.002 320.5,320C 296.609,333.351 271.276,342.184 244.5,346.5C 221.167,346.5 197.833,346.5 174.5,346.5C 135.62,340.375 100.953,324.875 70.5,300C 59,287.167 46.8333,275 34,263.5C -4.22823,215.435 -8.56157,164.435 21,110.5C 35.9722,87.8599 55.1389,69.6932 78.5,56C 101.159,44.008 123.159,31.008 144.5,17C 156.305,9.7625 168.971,4.7625 182.5,2C 190.623,1.15168 198.623,1.81835 206.5,4C 215.406,7.45268 224.073,11.4527 232.5,16C 257.174,32.0077 282.507,47.0077 308.5,61C 315.45,65.6153 322.116,70.6153 328.5,76C 344.71,91.2093 359.877,107.376 374,124.5C 383.994,139.669 391.161,156.003 395.5,173.5 Z"/></g>
<g><path style="opacity:1" fill="#f8f7f5" d="M 199.5,15.5 C 199.38,16.5862 198.713,17.2528 197.5,17.5C 184.274,19.7908 172.274,24.7908 161.5,32.5C 161.167,32.5 160.833,32.5 160.5,32.5C 133.528,48.6553 106.528,64.822 79.5,81C 38.6028,109.963 17.6028,149.463 16.5,199.5C 10.2689,152.132 25.6023,113.299 62.5,83C 68.2206,78.2794 74.2206,73.946 80.5,70C 108.759,54.0657 136.759,37.7323 164.5,21C 170.07,18.7147 175.736,16.7147 181.5,15C 187.528,14.3594 193.528,14.5261 199.5,15.5 Z"/></g>
<g><path style="opacity:1" fill="#faefde" d="M 199.5,15.5 C 208.483,18.4889 217.15,22.3223 225.5,27C 249.339,42.0896 273.673,56.4229 298.5,70C 323.648,85.1466 342.481,105.98 355,132.5C 357.879,139.301 360.045,146.301 361.5,153.5C 359.542,196.917 341.542,232.083 307.5,259C 268.648,288.061 224.815,302.561 176,302.5C 157.264,303.009 138.764,301.176 120.5,297C 104.497,292.388 88.83,286.888 73.5,280.5C 43.9281,261.051 24.9281,234.051 16.5,199.5C 17.6028,149.463 38.6028,109.963 79.5,81C 106.528,64.822 133.528,48.6553 160.5,32.5C 149.686,55.6425 132.019,70.9759 107.5,78.5C 106.614,79.325 106.281,80.325 106.5,81.5C 138.087,81.195 157.087,65.5283 163.5,34.5C 163.253,33.2867 162.586,32.62 161.5,32.5C 172.274,24.7908 184.274,19.7908 197.5,17.5C 198.713,17.2528 199.38,16.5862 199.5,15.5 Z"/></g>
<g><path style="opacity:1" fill="#cdbfa8" d="M 199.5,23.5 C 221.019,29.4687 234.186,43.4687 239,65.5C 239.749,72.5967 239.249,79.5967 237.5,86.5C 236.5,86.5 235.5,86.5 234.5,86.5C 231.836,61.1731 220.336,40.8397 200,25.5C 199.536,24.9056 199.369,24.2389 199.5,23.5 Z"/></g>
<g><path style="opacity:1" fill="#cdbfa8" d="M 186.5,24.5 C 187.552,24.3505 188.552,24.5172 189.5,25C 210.262,46.319 213.096,69.819 198,95.5C 196.989,96.3366 195.822,96.67 194.5,96.5C 195.823,89.5389 196.989,82.5389 198,75.5C 198.837,66.7191 198.17,58.0524 196,49.5C 193.369,40.9144 190.202,32.5811 186.5,24.5 Z"/></g>
<g><path style="opacity:1" fill="#cdbfa9" d="M 175.5,25.5 C 177.124,25.3601 178.29,26.0267 179,27.5C 184.875,52.5549 177.708,72.7215 157.5,88C 154.029,90.0719 150.362,91.5719 146.5,92.5C 148.629,87.8498 151.795,83.8498 156,80.5C 168.547,64.363 175.047,46.0297 175.5,25.5 Z"/></g>
<g><path style="opacity:1" fill="#cdbfa8" d="M 160.5,32.5 C 160.833,32.5 161.167,32.5 161.5,32.5C 162.586,32.62 163.253,33.2867 163.5,34.5C 157.087,65.5283 138.087,81.195 106.5,81.5C 106.281,80.325 106.614,79.325 107.5,78.5C 132.019,70.9759 149.686,55.6425 160.5,32.5 Z"/></g>
<g><path style="opacity:1" fill="#050504" d="M 139.5,191.5 C 126.672,196.186 115.672,193.519 106.5,183.5C 95.5244,164.921 99.5244,150.421 118.5,140C 136.355,135.844 148.522,142.344 155,159.5C 157.033,173.765 151.866,184.432 139.5,191.5 Z"/></g>
<g><path style="opacity:1" fill="#040303" d="M 273.5,183.5 C 264.238,193.14 253.238,195.806 240.5,191.5C 224.415,181.317 220.582,167.65 229,150.5C 240.359,137.226 253.526,135.059 268.5,144C 281.159,155.762 282.826,168.929 273.5,183.5 Z"/></g>
<g><path style="opacity:1" fill="#fafafa" d="M 114.5,147.5 C 125.49,145.992 130.324,150.658 129,161.5C 125.945,166.635 121.445,168.468 115.5,167C 109.975,164.081 108.142,159.581 110,153.5C 111.332,151.34 112.832,149.34 114.5,147.5 Z"/></g>
<g><path style="opacity:1" fill="#f7f7f7" d="M 238.5,147.5 C 251.813,146.632 255.98,152.298 251,164.5C 244.77,168.93 239.103,168.263 234,162.5C 231.449,156.273 232.949,151.273 238.5,147.5 Z"/></g>
<g><path style="opacity:1" fill="#f2dbcb" d="M 361.5,153.5 C 369.599,198.7 356.599,236.867 322.5,268C 290.181,295.121 252.847,310.788 210.5,315C 166.171,319.002 124.504,310.336 85.5,289C 81.2576,286.39 77.2576,283.557 73.5,280.5C 88.83,286.888 104.497,292.388 120.5,297C 138.764,301.176 157.264,303.009 176,302.5C 224.815,302.561 268.648,288.061 307.5,259C 341.542,232.083 359.542,196.917 361.5,153.5 Z"/></g>
<g><path style="opacity:1" fill="#fdbbcf" d="M 106.5,183.5 C 115.672,193.519 126.672,196.186 139.5,191.5C 145.303,198.589 144.636,205.089 137.5,211C 127.283,216.796 116.283,218.796 104.5,217C 97.4881,215.413 91.6547,211.913 87,206.5C 83.9137,196.508 87.4137,189.674 97.5,186C 100.628,185.159 103.628,184.325 106.5,183.5 Z"/></g>
<g><path style="opacity:1" fill="#fdbbcf" d="M 273.5,183.5 C 279.06,184.769 284.393,186.935 289.5,190C 296.619,197.939 295.953,205.272 287.5,212C 273.621,218.802 259.621,219.136 245.5,213C 235.839,207.459 234.172,200.292 240.5,191.5C 253.238,195.806 264.238,193.14 273.5,183.5 Z"/></g>
<g><path style="opacity:1" fill="#080404" d="M 155.5,207.5 C 178.169,207.333 200.836,207.5 223.5,208C 226.442,208.94 227.775,210.94 227.5,214C 224.499,228.986 216.166,239.986 202.5,247C 193.301,251.913 184.301,251.58 175.5,246C 164.257,239.427 156.757,229.927 153,217.5C 151.861,213.579 152.695,210.246 155.5,207.5 Z"/></g>
<g><path style="opacity:1" fill="#b31321" d="M 158.5,213.5 C 179.5,213.5 200.5,213.5 221.5,213.5C 220.435,218.964 218.268,223.964 215,228.5C 198.543,214.837 182.376,215.17 166.5,229.5C 161.721,225.274 159.054,219.941 158.5,213.5 Z"/></g>
<g><path style="opacity:1" fill="#f75e61" d="M 185.5,224.5 C 194.317,223.718 202.317,225.884 209.5,231C 210.517,232.049 210.684,233.216 210,234.5C 196.98,247.614 183.813,247.781 170.5,235C 174.872,230.439 179.872,226.939 185.5,224.5 Z"/></g>
</svg>
